<svg xmlns="http://www.w3.org/2000/svg" xmlns:xlink="http://www.w3.org/1999/xlink" viewBox="0 0 162.53 196.9"><defs><linearGradient id="a" x1="319.46" y1="219.79" x2="478.86" y2="82.65" gradientTransform="matrix(0.56, 0, 0, -0.57, -8.96, 287.06)" gradientUnits="userSpaceOnUse"><stop offset="0" stop-color="#5a9fd4"/><stop offset="1" stop-color="#306998"/></linearGradient><linearGradient id="b" x1="540.48" y1="-0.35" x2="483.56" y2="80.18" gradientTransform="matrix(0.56, 0, 0, -0.57, -8.96, 287.06)" gradientUnits="userSpaceOnUse"><stop offset="0" stop-color="#ffd43b"/><stop offset="1" stop-color="#ffe873"/></linearGradient><radialGradient id="c" cx="-809.2" cy="196.83" r="42.46" gradientTransform="matrix(0, -0.24, -1.05, 0, 463.94, 150.1)" gradientUnits="userSpaceOnUse"><stop offset="0" stop-color="#b8b8b8" stop-opacity="0.5"/><stop offset="1" stop-color="#7f7f7f" stop-opacity="0"/></radialGradient></defs><title>python-logo</title><path d="M255,157.55a111.94,111.94,0,0,0-18.73,1.6c-16.59,2.93-19.6,9.07-19.6,20.38v14.94h39.2v5H202c-11.39,0-21.37,6.85-24.49,19.88-3.6,14.93-3.76,24.25,0,39.84,2.79,11.61,9.44,19.88,20.84,19.88h13.48V261.13c0-12.94,11.2-24.35,24.49-24.35h39.16a19.75,19.75,0,0,0,19.6-19.92V179.53c0-10.62-9-18.61-19.6-20.38A122.28,122.28,0,0,0,255,157.55Zm-21.2,12a7.47,7.47,0,1,1-7.36,7.49A7.44,7.44,0,0,1,233.83,169.57Z" transform="translate(-174.73 -157.55)" style="fill:url(#a)"/><path d="M299.95,199.45v17.41c0,13.5-11.44,24.86-24.49,24.86H236.3c-10.73,0-19.6,9.18-19.6,19.92V299c0,10.62,9.24,16.87,19.6,19.92,12.41,3.65,24.31,4.31,39.16,0,9.87-2.86,19.6-8.61,19.6-19.92V284H255.9v-5h58.76c11.39,0,15.64-7.95,19.6-19.88,4.09-12.28,3.92-24.09,0-39.84-2.82-11.34-8.19-19.88-19.6-19.88Zm-22,94.54a7.47,7.47,0,1,1-7.36,7.45A7.4,7.4,0,0,1,277.92,294Z" transform="translate(-174.73 -157.55)" style="fill:url(#b)"/><path d="M308.88,344.26c0,5.63-23.52,10.19-52.54,10.19s-52.54-4.56-52.54-10.19,23.52-10.19,52.54-10.19S308.88,338.64,308.88,344.26Z" transform="translate(-174.73 -157.55)" style="opacity:0.44382017850875854;isolation:isolate;fill:url(#c)"/></svg>